# xmcd
#
# Track frame offsets:
#	150
#	13959
#	34106
#	50154
#	69149
#	85867
#	103835
#	122038
#	144377
#	162149
#	180241
#	198284
#	215145
#	233497
#	248797
#	264738
#	280038
#	297693
#	315056
#	336231
#
# Disc length: 4674 seconds
#
# Revision: 0
# Processed by: cddbd v1.5.2PL0 Copyright (c) Steve Scherf et al.
# Submitted via: audiograbber 1.83.01
#
DISCID=21124014
DTITLE=Various Artist - Ultimate Boy bands - CD2
DYEAR=2006
DGENRE=pop
TTITLE0=Westlife - Uptown Girl
TTITLE1=East 17 - Stay Another Day
TTITLE2=Back Street Boys - I Want It That Way
TTITLE3=New Kids On The Block - You got It (The Right Stuff)
TTITLE4=Bros - I Owe You Nothing
TTITLE5=Wet Wet Wet - Love Is All Around
TTITLE6=Boyzone - Words
TTITLE7=Another Level - Freak Me
TTITLE8=Boyz II Men - I'll Make Love To You
TTITLE9=Hanson - Mmmbop
TTITLE10=Osmonds (The) - Love Me For A Reason
TTITLE11=All 4 One - I Swear
TTITLE12=Phixx - Hold On Me
TTITLE13=Musical Youth - Pass The Dutchie
TTITLE14=V - Can You Feel It
TTITLE15=Triple 8 - Knockout
TTITLE16=New Edition - Candy Girl
TTITLE17=Curiosty - Down To Earth
TTITLE18=A-Ha - Sun Always Shines On TV (The)
TTITLE19=Blazin' Squad - Crossroads
EXTD=
EXTT0=
EXTT1=
EXTT2=
EXTT3=
EXTT4=
EXTT5=
EXTT6=
EXTT7=
EXTT8=
EXTT9=
EXTT10=
EXTT11=
EXTT12=
EXTT13=
EXTT14=
EXTT15=
EXTT16=
EXTT17=
EXTT18=
EXTT19=
PLAYORDER=
